<?xml version="1.0" encoding="UTF-8" standalone="no"?>
<!DOCTYPE svg PUBLIC "-//W3C//DTD SVG 1.1//EN" "http://www.w3.org/Graphics/SVG/1.1/DTD/svg11.dtd">
<svg xmlns="http://www.w3.org/2000/svg" version="1.1" viewBox="0 0 100 110">
  <g stroke-width="2.00" fill="none" stroke-linecap="butt">
    <path stroke="#b0de9f" vector-effect="non-scaling-stroke"
      d="
  M 72.76 17.17
  C 56.44 16.04 40.07 14.99 23.73 14.15
  C 19.63 13.93 17.93 16.29 18.19 20.30
  Q 18.59 26.43 19.10 32.55
  C 19.47 36.98 22.14 37.88 26.25 37.14
  Q 47.79 33.27 69.35 29.56
  Q 74.11 28.74 76.19 27.46
  C 81.26 24.32 78.74 17.58 72.76 17.17"
    />
    <path stroke="#92a1eb" vector-effect="non-scaling-stroke"
      d="
  M 87.29 39.74
  C 86.36 34.71 81.26 32.28 76.53 32.98
  Q 49.38 37.03 22.32 41.62
  C 16.90 42.55 9.93 45.30 12.43 52.51
  C 13.96 56.91 18.60 57.25 22.75 57.53
  Q 50.87 59.45 79.02 61.21
  C 84.25 61.53 88.53 59.91 88.76 54.25
  Q 88.99 48.84 87.29 39.74"
    />
    <path stroke="#e69d98" vector-effect="non-scaling-stroke"
      d="
  M 92.55 77.85
  C 93.70 69.88 89.39 68.89 83.00 68.01
  Q 44.37 62.71 17.00 60.50
  C 7.95 59.78 7.23 71.58 7.48 77.48
  C 7.69 82.55 11.09 84.26 15.92 84.26
  Q 49.89 84.24 83.86 84.26
  C 88.95 84.26 91.80 83.07 92.55 77.85"
    />
  </g>
  <path fill="#ffffff"
    d="
  M 100.00 51.06
  L 100.00 59.81
  C 97.62 85.69 80.09 107.21 53.44 110.00
  L 46.94 110.00
  Q 29.83 108.06 17.98 97.13
  C -7.62 73.50 -5.21 27.40 24.71 8.17
  C 46.15 -5.60 72.45 -0.16 87.90 19.52
  Q 98.46 32.98 100.00 51.06
  Z
  M 72.76 17.17
  C 56.44 16.04 40.07 14.99 23.73 14.15
  C 19.63 13.93 17.93 16.29 18.19 20.30
  Q 18.59 26.43 19.10 32.55
  C 19.47 36.98 22.14 37.88 26.25 37.14
  Q 47.79 33.27 69.35 29.56
  Q 74.11 28.74 76.19 27.46
  C 81.26 24.32 78.74 17.58 72.76 17.17
  Z
  M 87.29 39.74
  C 86.36 34.71 81.26 32.28 76.53 32.98
  Q 49.38 37.03 22.32 41.62
  C 16.90 42.55 9.93 45.30 12.43 52.51
  C 13.96 56.91 18.60 57.25 22.75 57.53
  Q 50.87 59.45 79.02 61.21
  C 84.25 61.53 88.53 59.91 88.76 54.25
  Q 88.99 48.84 87.29 39.74
  Z
  M 92.55 77.85
  C 93.70 69.88 89.39 68.89 83.00 68.01
  Q 44.37 62.71 17.00 60.50
  C 7.95 59.78 7.23 71.58 7.48 77.48
  C 7.69 82.55 11.09 84.26 15.92 84.26
  Q 49.89 84.24 83.86 84.26
  C 88.95 84.26 91.80 83.07 92.55 77.85
  Z"
  />
  <path fill="#60bd3f"
    d="
  M 23.73 14.15
  C 40.07 14.99 56.44 16.04 72.76 17.17
  C 78.74 17.58 81.26 24.32 76.19 27.46
  Q 74.11 28.74 69.35 29.56
  Q 47.79 33.27 26.25 37.14
  C 22.14 37.88 19.47 36.98 19.10 32.55
  Q 18.59 26.43 18.19 20.30
  C 17.93 16.29 19.63 13.93 23.73 14.15
  Z"
  />
  <path fill="#2542d6"
    d="
  M 76.53 32.98
  C 81.26 32.28 86.36 34.71 87.29 39.74
  Q 88.99 48.84 88.76 54.25
  C 88.53 59.91 84.25 61.53 79.02 61.21
  Q 50.87 59.45 22.75 57.53
  C 18.60 57.25 13.96 56.91 12.43 52.51
  C 9.93 45.30 16.90 42.55 22.32 41.62
  Q 49.38 37.03 76.53 32.98
  Z"
  />
  <path fill="#cc3a31"
    d="
  M 83.00 68.01
  C 89.39 68.89 93.70 69.88 92.55 77.85
  C 91.80 83.07 88.95 84.26 83.86 84.26
  Q 49.89 84.24 15.92 84.26
  C 11.09 84.26 7.69 82.55 7.48 77.48
  C 7.23 71.58 7.95 59.78 17.00 60.50
  Q 44.37 62.71 83.00 68.01
  Z"
  />
</svg>