<?xml version="1.0" encoding="UTF-8" standalone="no"?>
<!DOCTYPE svg PUBLIC "-//W3C//DTD SVG 1.1//EN" "http://www.w3.org/Graphics/SVG/1.1/DTD/svg11.dtd">
<svg xmlns="http://www.w3.org/2000/svg" version="1.1" viewBox="0 0 606 146">
  <g stroke-width="2.00" fill="none" stroke-linecap="butt">
    <path stroke="#b0de9f" vector-effect="non-scaling-stroke"
      d="
  M 93.77 38.31
  C 77.17 36.94 60.42 36.16 43.80 35.17
  C 38.89 34.88 36.93 36.57 37.23 41.51
  Q 37.60 47.55 38.11 53.61
  C 38.46 57.77 41.02 58.87 44.96 58.17
  Q 67.42 54.20 89.85 50.01
  C 95.23 49.01 99.24 47.40 97.21 41.05
  Q 96.40 38.53 93.77 38.31"
    />
    <path stroke="#92a1eb" vector-effect="non-scaling-stroke"
      d="
  M 106.37 60.93
  C 105.47 55.79 100.38 53.27 95.53 53.99
  Q 68.94 57.94 42.43 62.38
  C 37.55 63.20 31.08 64.96 30.94 70.39
  C 30.81 75.13 34.35 78.14 38.94 78.44
  Q 68.47 80.35 98.02 82.20
  C 103.24 82.53 107.54 80.91 107.77 75.25
  Q 107.97 70.05 106.37 60.93"
    />
    <path stroke="#e69d98" vector-effect="non-scaling-stroke"
      d="
  M 111.63 98.02
  C 112.25 88.51 104.58 89.45 98.01 88.48
  Q 68.63 84.15 39.06 81.75
  C 27.11 80.78 26.60 88.06 26.58 97.99
  C 26.56 103.77 29.97 105.25 35.32 105.25
  Q 68.98 105.24 102.64 105.26
  C 108.20 105.26 111.25 103.84 111.63 98.02"
    />
  </g>
  <path fill="#ffffff"
    d="
  M 69.0844 130.9999
  A 54.75 49.86 90.1 0 1 19.3201 76.1630
  A 54.75 49.86 90.1 0 1 69.2756 21.5001
  A 54.75 49.86 90.1 0 1 119.0399 76.3370
  A 54.75 49.86 90.1 0 1 69.0844 130.9999
  Z
  M 93.77 38.31
  C 77.17 36.94 60.42 36.16 43.80 35.17
  C 38.89 34.88 36.93 36.57 37.23 41.51
  Q 37.60 47.55 38.11 53.61
  C 38.46 57.77 41.02 58.87 44.96 58.17
  Q 67.42 54.20 89.85 50.01
  C 95.23 49.01 99.24 47.40 97.21 41.05
  Q 96.40 38.53 93.77 38.31
  Z
  M 106.37 60.93
  C 105.47 55.79 100.38 53.27 95.53 53.99
  Q 68.94 57.94 42.43 62.38
  C 37.55 63.20 31.08 64.96 30.94 70.39
  C 30.81 75.13 34.35 78.14 38.94 78.44
  Q 68.47 80.35 98.02 82.20
  C 103.24 82.53 107.54 80.91 107.77 75.25
  Q 107.97 70.05 106.37 60.93
  Z
  M 111.63 98.02
  C 112.25 88.51 104.58 89.45 98.01 88.48
  Q 68.63 84.15 39.06 81.75
  C 27.11 80.78 26.60 88.06 26.58 97.99
  C 26.56 103.77 29.97 105.25 35.32 105.25
  Q 68.98 105.24 102.64 105.26
  C 108.20 105.26 111.25 103.84 111.63 98.02
  Z"
  />
  <path fill="#ffffff"
    d="
  M 282.94 49.30
  L 272.05 49.25
  A 0.80 0.69 -8.5 0 1 271.34 48.80
  Q 270.94 47.77 271.44 46.88
  A 0.96 0.75 11.0 0 1 272.23 46.48
  L 282.97 46.46
  A 0.50 0.50 0.0 0 0 283.47 45.96
  L 283.51 29.58
  A 0.60 0.56 86.8 0 1 284.00 28.99
  Q 285.06 28.86 286.01 29.13
  A 0.69 0.65 -82.9 0 1 286.49 29.79
  L 286.53 45.96
  A 0.50 0.50 0.0 0 0 287.03 46.46
  L 297.69 46.51
  A 0.79 0.68 -9.1 0 1 298.40 46.95
  Q 298.81 47.98 298.32 48.85
  A 0.95 0.79 11.9 0 1 297.53 49.27
  L 286.99 49.26
  A 0.51 0.50 90.0 0 0 286.49 49.77
  L 286.45 72.37
  A 0.52 0.51 -89.4 0 0 286.95 72.89
  L 298.77 72.96
  A 0.98 0.76 -11.7 0 1 299.56 73.35
  Q 300.16 74.37 299.56 75.35
  A 0.96 0.81 12.7 0 1 298.77 75.76
  L 269.55 75.75
  A 0.71 0.68 -8.4 0 1 268.88 75.27
  Q 268.61 74.38 268.72 73.50
  A 0.61 0.57 3.8 0 1 269.32 73.01
  L 282.96 72.96
  A 0.51 0.50 -0.0 0 0 283.47 72.46
  L 283.44 49.82
  A 0.52 0.51 -89.4 0 0 282.94 49.30
  Z"
  />
  <path fill="#ffffff"
    d="
  M 425.06 38.66
  L 435.19 38.54
  A 0.89 0.80 -12.9 0 0 436.02 37.36
  L 432.42 30.46
  A 0.60 0.51 59.0 0 1 432.54 29.73
  Q 433.38 29.15 434.27 29.16
  A 1.05 0.87 70.3 0 1 435.06 29.63
  C 436.14 31.25 439.71 36.84 438.63 38.30
  Q 438.38 38.65 438.79 38.64
  L 445.45 38.47
  A 1.17 1.04 17.5 0 0 446.28 38.10
  Q 449.32 34.50 451.49 30.38
  A 0.94 0.79 -75.2 0 1 452.21 29.87
  Q 453.49 29.82 454.31 30.86
  A 0.70 0.64 -47.0 0 1 454.30 31.67
  L 449.73 38.10
  Q 449.43 38.52 449.94 38.52
  L 457.96 38.53
  A 0.50 0.50 0.0 0 1 458.46 39.03
  L 458.48 48.18
  A 0.58 0.47 -88.6 0 1 457.98 48.76
  L 456.00 48.63
  A 0.66 0.51 -88.7 0 1 455.52 47.98
  L 455.46 41.76
  A 0.52 0.50 -0.6 0 0 454.94 41.27
  L 417.05 41.27
  A 0.51 0.50 0.6 0 0 416.54 41.76
  L 416.48 48.17
  A 0.60 0.56 86.8 0 1 415.99 48.76
  Q 415.08 48.88 414.25 48.64
  A 0.71 0.67 -82.4 0 1 413.77 47.97
  L 413.78 39.05
  A 0.51 0.51 -0.0 0 1 414.29 38.54
  L 421.77 38.51
  Q 422.97 38.50 422.31 37.57
  L 418.09 31.57
  A 0.60 0.50 52.2 0 1 418.12 30.83
  Q 418.72 30.28 419.51 30.10
  A 0.97 0.86 59.0 0 1 420.36 30.37
  Q 423.19 33.21 425.09 36.79
  A 1.14 0.67 52.7 0 1 425.20 37.71
  L 424.89 38.31
  A 0.24 0.21 -74.7 0 0 425.06 38.66
  Z"
  />
  <path fill="#fdfdfd" fill-opacity="0.996"
    d="
  M 400.32 60.87
  L 405.70 60.09
  A 0.82 0.72 -18.4 0 1 406.49 60.42
  Q 407.03 61.31 406.72 62.26
  A 0.93 0.76 2.0 0 1 406.02 62.79
  L 400.25 63.69
  A 0.61 0.57 85.6 0 0 399.77 64.29
  L 399.74 77.44
  A 0.54 0.51 -90.0 0 1 399.23 77.98
  L 397.52 77.99
  A 0.56 0.51 -90.0 0 1 397.01 77.43
  L 396.96 64.75
  A 0.43 0.43 85.5 0 0 396.46 64.32
  L 379.32 66.97
  A 0.88 0.88 -13.2 0 1 378.35 66.37
  Q 377.63 64.09 379.72 63.84
  Q 388.11 62.85 396.43 61.46
  A 0.61 0.59 -5.3 0 0 396.93 60.88
  L 396.99 30.07
  A 0.77 0.67 81.5 0 1 397.44 29.37
  Q 398.40 29.01 399.30 29.34
  A 0.80 0.70 -81.5 0 1 399.76 30.05
  L 399.81 60.45
  A 0.45 0.43 -4.1 0 0 400.32 60.87
  Z"
  />
  <path fill="#ffffff"
    d="
  M 170.06 38.94
  L 188.71 39.03
  A 0.51 0.50 0.0 0 1 189.22 39.53
  L 189.23 62.69
  A 0.75 0.70 80.5 0 1 188.77 63.38
  Q 186.33 64.26 186.50 61.20
  A 0.88 0.87 -88.4 0 0 185.63 60.27
  L 170.03 60.28
  A 0.51 0.50 -90.0 0 0 169.53 60.79
  L 169.49 77.43
  A 0.59 0.57 86.7 0 1 168.99 78.01
  Q 167.92 78.14 166.96 77.87
  A 0.69 0.63 -82.8 0 1 166.50 77.22
  L 166.41 60.88
  A 0.53 0.52 89.4 0 0 165.89 60.36
  L 149.93 60.37
  A 0.41 0.39 83.4 0 0 149.56 60.87
  Q 150.43 64.62 147.27 63.62
  A 0.70 0.67 -81.5 0 1 146.80 62.96
  L 146.79 39.54
  A 0.51 0.50 -0.0 0 1 147.30 39.04
  L 165.95 38.98
  A 0.51 0.50 -0.0 0 0 166.46 38.48
  L 166.51 30.30
  A 0.73 0.66 81.8 0 1 166.97 29.62
  Q 168.02 29.26 169.03 29.60
  A 0.76 0.67 -82.6 0 1 169.49 30.29
  L 169.55 38.43
  A 0.52 0.51 89.4 0 0 170.06 38.94
  Z
  M 166.50 42.31
  A 0.31 0.31 0.0 0 0 166.19 42.00
  L 149.81 42.00
  A 0.31 0.31 0.0 0 0 149.50 42.31
  L 149.50 57.19
  A 0.31 0.31 0.0 0 0 149.81 57.50
  L 166.19 57.50
  A 0.31 0.31 0.0 0 0 166.50 57.19
  L 166.50 42.31
  Z
  M 186.4872 42.4152
  A 0.43 0.43 0.0 0 0 186.0565 41.9859
  L 169.9165 42.0141
  A 0.43 0.43 0.0 0 0 169.4872 42.4448
  L 169.5128 57.0848
  A 0.43 0.43 0.0 0 0 169.9435 57.5141
  L 186.0835 57.4859
  A 0.43 0.43 0.0 0 0 186.5128 57.0552
  L 186.4872 42.4152
  Z"
  />
  <path fill="#ffffff"
    d="
  M 328.65 35.37
  Q 319.35 45.07 307.19 50.78
  A 0.79 0.73 -35.8 0 1 306.36 50.68
  Q 305.48 49.93 305.14 48.77
  A 0.60 0.55 -20.2 0 1 305.49 48.09
  Q 319.60 42.18 328.91 30.13
  A 0.96 0.89 -68.4 0 1 329.70 29.75
  Q 332.73 29.94 330.99 32.37
  A 0.62 0.58 -49.6 0 0 331.03 33.14
  Q 340.35 42.73 352.74 47.58
  A 0.42 0.39 28.7 0 1 352.94 48.19
  L 351.56 49.98
  A 0.71 0.63 29.6 0 1 350.75 50.15
  Q 338.58 44.85 329.35 35.36
  A 0.49 0.48 -45.4 0 0 328.65 35.37
  Z"
  />
  <path fill="#ffffff"
    d="
  M 490.48 38.31
  A 1.13 0.98 73.3 0 1 489.53 37.71
  L 485.73 30.66
  A 0.62 0.52 58.4 0 1 485.84 29.91
  Q 486.87 29.18 488.11 29.52
  A 1.20 1.15 -6.2 0 1 488.85 30.09
  L 492.57 36.80
  A 0.62 0.62 55.9 0 1 492.42 37.59
  Q 491.57 38.27 490.48 38.31
  Z"
  />
  <rect fill="#ffffff" x="-1.34" y="-4.63" transform="translate(261.41,33.65) rotate(-37.6)"
    width="2.68" height="9.26" rx="0.94" />
  <path fill="#ffffff"
    d="
  M 525.81 38.30
  C 525.83 51.85 526.31 64.99 521.00 77.77
  A 0.59 0.55 -70.6 0 1 520.32 78.12
  Q 519.26 77.82 518.59 77.13
  A 0.80 0.71 -56.9 0 1 518.47 76.30
  C 524.18 63.01 522.69 47.11 522.84 35.60
  A 0.52 0.52 -89.4 0 1 523.36 35.09
  L 543.46 34.98
  A 0.36 0.31 -13.0 0 0 543.80 34.51
  L 541.78 30.92
  A 0.60 0.44 58.7 0 1 541.84 30.22
  Q 542.94 29.40 544.18 29.89
  A 1.69 0.79 68.0 0 1 544.88 30.54
  L 547.69 34.62
  A 1.02 0.89 -14.8 0 0 548.50 35.02
  L 566.17 35.01
  A 0.80 0.69 -8.9 0 1 566.89 35.46
  Q 567.29 36.48 566.79 37.37
  A 0.95 0.78 12.1 0 1 566.01 37.77
  L 526.31 37.81
  A 0.50 0.49 -0.0 0 0 525.81 38.30
  Z"
  />
  <path fill="#ffffff"
    d="
  M 366.44 47.30
  L 359.04 47.25
  A 0.78 0.71 -8.7 0 1 358.34 46.79
  Q 357.93 45.65 358.48 44.76
  A 1.03 0.73 11.2 0 1 359.28 44.40
  L 367.12 44.41
  A 0.53 0.53 89.7 0 0 367.65 43.88
  L 367.65 36.14
  A 0.49 0.46 -2.8 0 0 367.11 35.68
  C 365.26 35.89 358.70 38.20 358.98 34.99
  A 0.66 0.61 -1.9 0 1 359.55 34.43
  Q 367.55 33.29 375.13 30.52
  A 1.10 0.96 -36.6 0 1 376.05 30.59
  Q 376.94 31.14 377.43 32.15
  A 0.47 0.46 68.2 0 1 377.16 32.80
  L 371.04 34.67
  A 0.73 0.62 -10.0 0 0 370.53 35.29
  L 370.59 43.87
  A 0.53 0.53 0.6 0 0 371.11 44.40
  L 378.20 44.51
  A 0.79 0.68 -7.9 0 1 378.90 44.96
  Q 379.23 45.89 378.91 46.77
  A 0.76 0.68 8.6 0 1 378.21 47.23
  L 371.54 47.23
  Q 369.76 47.23 370.84 48.65
  L 377.92 57.91
  A 0.79 0.74 42.1 0 1 377.99 58.76
  Q 377.51 59.63 376.72 60.21
  A 0.48 0.47 55.3 0 1 376.03 60.08
  L 371.27 52.71
  Q 370.45 51.43 370.45 52.96
  L 370.48 77.20
  A 0.76 0.70 80.7 0 1 370.02 77.90
  Q 369.10 78.23 368.21 77.91
  A 0.78 0.69 -80.9 0 1 367.76 77.20
  L 367.74 53.87
  A 0.66 0.38 -81.4 0 0 367.54 53.36
  Q 367.30 53.20 367.15 53.59
  Q 364.28 60.98 359.43 67.21
  A 0.52 0.49 -51.3 0 1 358.71 67.31
  Q 357.77 66.55 357.58 65.56
  A 1.23 0.90 -36.2 0 1 357.86 64.68
  Q 363.98 57.08 366.79 47.79
  A 0.38 0.37 -81.3 0 0 366.44 47.30
  Z"
  />
  <path fill="#ffffff"
    d="
  M 202.60 76.32
  Q 202.70 78.75 200.31 77.72
  A 0.79 0.73 -79.3 0 1 199.86 77.01
  L 199.80 32.54
  A 0.49 0.49 89.4 0 1 200.29 32.04
  L 243.21 32.04
  A 0.51 0.49 -0.0 0 1 243.72 32.53
  L 243.73 77.69
  A 0.53 0.49 -90.0 0 1 243.24 78.22
  L 241.26 78.24
  A 0.62 0.43 85.0 0 1 240.81 77.70
  L 240.61 76.02
  A 0.65 0.53 -2.9 0 0 239.96 75.55
  L 203.06 75.80
  A 0.50 0.46 88.8 0 0 202.60 76.32
  Z
  M 240.7175 35.1366
  A 0.42 0.42 0.0 0 0 240.2968 34.7174
  L 202.8768 34.7827
  A 0.42 0.42 0.0 0 0 202.4576 35.2034
  L 202.5225 72.3834
  A 0.42 0.42 0.0 0 0 202.9432 72.8026
  L 240.3632 72.7373
  A 0.42 0.42 0.0 0 0 240.7824 72.3166
  L 240.7175 35.1366
  Z"
  />
  <path fill="#ffffff"
    d="
  M 393.33 39.88
  A 0.94 0.87 -58.9 0 1 393.56 41.00
  Q 393.28 41.60 392.36 42.27
  A 0.60 0.57 49.7 0 1 391.60 42.19
  Q 388.05 38.48 383.69 35.74
  A 0.82 0.68 22.7 0 1 383.30 34.99
  Q 383.49 33.92 384.52 33.60
  A 1.05 0.96 -33.2 0 1 385.44 33.75
  L 393.33 39.88
  Z"
  />
  <path fill="#60bd3f"
    d="
  M 43.80 35.17
  C 60.42 36.16 77.17 36.94 93.77 38.31
  Q 96.40 38.53 97.21 41.05
  C 99.24 47.40 95.23 49.01 89.85 50.01
  Q 67.42 54.20 44.96 58.17
  C 41.02 58.87 38.46 57.77 38.11 53.61
  Q 37.60 47.55 37.23 41.51
  C 36.93 36.57 38.89 34.88 43.80 35.17
  Z"
  />
  <path fill="#ffffff"
    d="
  M 262.33 54.80
  L 262.45 77.19
  A 0.80 0.73 80.5 0 1 261.98 77.92
  Q 261.13 78.23 260.21 77.90
  A 0.78 0.69 -80.9 0 1 259.76 77.19
  L 259.75 55.99
  Q 259.75 54.88 259.04 55.72
  Q 256.23 58.99 252.42 61.52
  A 0.80 0.73 -44.5 0 1 251.57 61.55
  Q 250.43 60.80 250.64 59.53
  A 1.31 1.01 -16.7 0 1 251.19 58.76
  Q 260.70 52.34 266.06 42.23
  A 0.32 0.31 -75.3 0 0 265.80 41.76
  L 252.49 41.56
  A 0.93 0.72 -10.6 0 1 251.72 41.17
  Q 251.18 40.19 251.57 39.22
  A 0.83 0.73 10.0 0 1 252.31 38.77
  L 269.20 38.78
  A 1.01 1.01 -79.0 0 1 270.13 40.17
  Q 267.87 45.72 263.72 50.84
  A 0.57 0.55 -47.9 0 0 263.75 51.58
  L 270.42 58.37
  A 0.93 0.87 31.5 0 1 270.66 59.23
  Q 270.30 60.49 269.25 61.05
  A 0.61 0.57 58.0 0 1 268.50 60.85
  Q 266.01 57.31 262.70 54.62
  Q 262.32 54.32 262.33 54.80
  Z"
  />
  <path fill="#ffffff"
    d="
  M 489.05 65.88
  Q 479.32 73.74 467.43 77.79
  A 1.11 0.93 -34.3 0 1 466.53 77.70
  Q 465.52 77.00 465.22 75.63
  A 0.56 0.54 -14.8 0 1 465.61 74.99
  Q 477.38 71.59 486.73 63.82
  A 0.49 0.47 -41.3 0 0 486.79 63.13
  Q 478.55 53.97 473.99 42.69
  A 0.81 0.73 78.3 0 0 473.31 42.19
  L 466.07 41.99
  A 0.55 0.47 0.6 0 1 465.53 41.52
  L 465.51 39.52
  A 0.56 0.50 -0.0 0 1 466.07 39.02
  L 512.69 39.01
  A 0.75 0.68 -8.7 0 1 513.38 39.47
  Q 513.74 40.53 513.40 41.54
  A 0.76 0.66 7.5 0 1 512.72 41.99
  L 505.36 42.10
  A 0.74 0.72 -79.5 0 0 504.68 42.58
  Q 500.31 54.09 492.00 63.10
  A 0.47 0.47 -47.9 0 0 492.03 63.78
  Q 501.42 71.80 513.14 74.96
  A 0.55 0.52 13.0 0 1 513.55 75.58
  Q 513.28 76.92 512.20 77.55
  A 1.31 1.04 33.6 0 1 511.25 77.63
  Q 499.25 74.07 489.81 65.89
  A 0.59 0.58 -43.7 0 0 489.05 65.88
  Z
  M 490.39 60.29
  Q 498.14 51.29 501.23 42.63
  A 0.36 0.35 -79.7 0 0 500.90 42.15
  L 477.44 42.17
  A 0.35 0.34 78.8 0 0 477.13 42.65
  Q 481.26 53.17 488.52 60.37
  A 1.28 1.28 42.5 0 0 490.39 60.29
  Z"
  />
  <path fill="#ffffff"
    d="
  M 544.05 44.94
  L 563.69 45.00
  A 0.77 0.68 -9.3 0 1 564.39 45.44
  Q 565.17 47.51 562.76 47.50
  Q 552.76 47.49 542.78 47.51
  A 0.86 0.84 14.0 0 0 542.03 47.95
  L 537.44 56.13
  A 0.32 0.31 -74.5 0 0 537.70 56.60
  L 547.71 56.71
  A 0.53 0.50 -90.0 0 0 548.21 56.18
  L 548.27 51.29
  A 0.75 0.65 82.0 0 1 548.72 50.60
  Q 549.65 50.28 550.54 50.59
  A 0.79 0.64 -82.9 0 1 550.98 51.29
  L 551.10 56.16
  A 0.55 0.53 0.0 0 0 551.64 56.68
  L 562.93 56.75
  A 0.78 0.71 -9.9 0 1 563.64 57.20
  Q 564.50 59.37 562.01 59.26
  Q 560.33 59.18 551.56 59.28
  A 0.53 0.49 0.0 0 0 551.03 59.77
  L 551.10 65.67
  A 0.55 0.52 -0.5 0 0 551.65 66.18
  L 566.20 66.25
  A 0.71 0.66 -7.6 0 1 566.87 66.72
  Q 567.14 67.62 567.03 68.50
  A 0.60 0.57 3.9 0 1 566.44 68.99
  L 551.54 69.02
  A 0.52 0.51 -0.0 0 0 551.03 69.52
  L 550.98 77.42
  A 0.60 0.56 86.8 0 1 550.49 78.01
  Q 549.56 78.13 548.73 77.89
  A 0.72 0.65 -82.4 0 1 548.27 77.22
  L 548.21 69.53
  A 0.51 0.51 89.8 0 0 547.70 69.02
  L 529.06 69.00
  A 0.79 0.72 -9.7 0 1 528.34 68.54
  Q 527.93 67.50 528.44 66.62
  A 1.00 0.78 11.1 0 1 529.23 66.22
  L 547.61 66.18
  A 0.53 0.51 0.6 0 0 548.14 65.68
  L 548.22 59.86
  A 0.57 0.53 2.8 0 0 547.69 59.32
  Q 540.77 58.89 533.92 59.75
  A 0.67 0.62 -13.0 0 1 533.23 59.35
  L 532.74 58.04
  A 0.87 0.81 -35.2 0 1 532.92 57.19
  Q 536.56 53.09 538.65 48.06
  A 0.42 0.41 10.9 0 0 538.26 47.49
  L 530.54 47.49
  A 0.78 0.69 -8.0 0 1 529.84 47.02
  Q 529.56 46.22 529.79 45.43
  A 0.77 0.64 6.6 0 1 530.48 44.98
  L 539.84 44.92
  A 0.80 0.71 -76.8 0 0 540.52 44.44
  L 542.40 40.10
  A 0.72 0.71 -75.2 0 1 543.12 39.67
  Q 544.09 39.77 544.87 40.21
  A 0.60 0.57 -65.1 0 1 545.11 40.94
  L 543.74 44.47
  A 0.34 0.34 -78.8 0 0 544.05 44.94
  Z"
  />
  <path fill="#ffffff"
    d="
  M 222.80 54.57
  L 222.79 63.96
  A 0.51 0.50 0.6 0 0 223.30 64.47
  L 236.67 64.51
  A 0.61 0.56 -3.2 0 1 237.27 65.00
  Q 237.38 65.80 237.14 66.52
  A 0.74 0.67 8.0 0 1 236.45 66.99
  L 207.55 66.99
  A 0.73 0.66 -8.2 0 1 206.87 66.53
  Q 206.62 65.78 206.72 65.01
  A 0.60 0.57 3.2 0 1 207.31 64.51
  L 219.45 64.47
  A 0.51 0.49 -0.6 0 0 219.96 63.97
  L 219.91 54.62
  A 0.53 0.53 89.4 0 0 219.38 54.10
  L 210.07 54.01
  A 0.82 0.74 -11.2 0 1 209.35 53.58
  Q 208.38 51.43 210.73 51.45
  Q 217.05 51.49 219.36 51.40
  A 0.55 0.52 -0.6 0 0 219.90 50.88
  L 219.90 43.11
  A 0.54 0.52 0.0 0 0 219.36 42.59
  L 208.29 42.50
  A 0.73 0.65 -7.0 0 1 207.62 42.04
  Q 207.38 41.27 207.47 40.50
  A 0.61 0.56 3.2 0 1 208.07 40.01
  L 235.44 40.01
  A 0.59 0.57 -3.3 0 1 236.02 40.51
  Q 236.12 41.31 235.89 42.02
  A 0.72 0.66 7.5 0 1 235.21 42.49
  L 223.30 42.53
  A 0.51 0.49 -0.0 0 0 222.79 43.02
  L 222.78 50.97
  A 0.51 0.50 0.0 0 0 223.29 51.47
  L 233.70 51.51
  A 0.77 0.66 -8.5 0 1 234.40 51.95
  Q 234.71 52.77 234.42 53.55
  A 0.78 0.66 8.3 0 1 233.71 53.99
  L 223.31 54.05
  A 0.52 0.52 -0.6 0 0 222.80 54.57
  Z"
  />
  <rect fill="#ffffff" x="-12.96" y="-1.38" transform="translate(329.00,47.62) rotate(0.1)"
    width="25.92" height="2.76" rx="0.62" />
  <path fill="#ffffff"
    d="
  M 444.44 49.81
  L 421.81 49.75
  A 0.80 0.69 -8.9 0 1 421.09 49.30
  Q 420.78 48.50 421.09 47.70
  A 0.79 0.68 9.1 0 1 421.80 47.26
  Q 435.53 47.25 449.25 47.25
  Q 450.11 47.25 450.74 48.28
  A 0.60 0.57 -35.2 0 1 450.59 49.04
  Q 445.16 53.47 438.70 56.17
  C 437.28 56.76 436.80 57.60 437.35 59.05
  A 0.77 0.68 -9.3 0 0 438.05 59.49
  L 458.69 59.51
  A 0.76 0.68 -8.6 0 1 459.39 59.97
  Q 459.71 60.91 459.44 61.82
  A 0.73 0.62 6.7 0 1 458.76 62.27
  L 437.87 62.33
  A 0.53 0.51 -88.8 0 0 437.36 62.84
  Q 437.17 68.78 437.16 74.49
  C 437.15 79.42 428.90 78.05 425.76 78.00
  A 1.12 0.92 -14.4 0 1 424.93 77.61
  Q 424.41 76.90 424.31 76.03
  A 0.48 0.46 -2.7 0 1 424.79 75.52
  L 433.44 75.48
  A 0.79 0.78 -0.0 0 0 434.23 74.70
  L 434.21 62.79
  A 0.50 0.50 0.0 0 0 433.71 62.29
  L 413.30 62.33
  A 0.71 0.64 -8.1 0 1 412.62 61.87
  Q 412.36 61.02 412.48 60.01
  A 0.59 0.57 3.3 0 1 413.06 59.51
  L 433.70 59.49
  A 0.52 0.50 -88.8 0 0 434.20 58.99
  L 434.33 55.86
  A 0.78 0.72 -9.9 0 1 434.84 55.20
  Q 440.09 53.32 444.54 50.10
  Q 444.95 49.81 444.44 49.81
  Z"
  />
  <path fill="#ffffff"
    d="
  M 391.56 56.06
  Q 391.47 56.37 391.27 56.52
  A 0.74 0.48 46.8 0 1 390.49 56.33
  Q 386.39 52.39 381.45 49.48
  A 0.70 0.61 24.8 0 1 381.12 48.74
  C 382.24 45.00 391.04 53.09 392.33 54.23
  A 0.66 0.63 35.6 0 1 392.48 55.02
  Q 392.13 55.62 391.56 56.06
  Z"
  />
  <path fill="#2542d6"
    d="
  M 95.53 53.99
  C 100.38 53.27 105.47 55.79 106.37 60.93
  Q 107.97 70.05 107.77 75.25
  C 107.54 80.91 103.24 82.53 98.02 82.20
  Q 68.47 80.35 38.94 78.44
  C 34.35 78.14 30.81 75.13 30.94 70.39
  C 31.08 64.96 37.55 63.20 42.43 62.38
  Q 68.94 57.94 95.53 53.99
  Z"
  />
  <rect fill="#ffffff" x="-1.19" y="-4.66" transform="translate(230.91,59.25) rotate(-43.5)"
    width="2.38" height="9.32" rx="0.70" />
  <path fill="#ffffff"
    d="
  M 315.66 73.18
  L 341.05 70.87
  Q 341.55 70.82 341.27 70.43
  Q 338.79 66.98 335.61 64.30
  A 0.66 0.58 35.0 0 1 335.42 63.53
  C 337.72 59.19 348.22 74.08 349.47 75.85
  A 0.67 0.63 48.5 0 1 349.45 76.65
  Q 348.68 77.56 347.53 77.89
  A 0.76 0.57 61.3 0 1 346.81 77.56
  L 344.11 73.83
  A 0.99 0.74 -16.5 0 0 343.27 73.52
  L 310.97 76.57
  A 0.96 0.85 -19.5 0 1 310.15 76.24
  Q 308.81 74.44 310.26 73.43
  C 314.91 70.19 319.34 64.50 322.51 59.84
  Q 322.80 59.42 322.28 59.41
  L 307.55 59.27
  A 0.70 0.63 -7.1 0 1 306.89 58.81
  Q 306.61 57.88 306.72 57.00
  A 0.61 0.56 3.2 0 1 307.32 56.51
  L 350.21 56.51
  A 0.70 0.67 -8.5 0 1 350.87 56.98
  Q 351.14 57.86 351.03 58.74
  A 0.61 0.58 3.8 0 1 350.43 59.24
  L 327.64 59.25
  A 1.34 1.34 -72.0 0 0 326.56 59.80
  Q 321.57 66.74 315.45 72.71
  Q 314.89 73.25 315.66 73.18
  Z"
  />
  <path fill="#cc3a31"
    d="
  M 98.01 88.48
  C 104.58 89.45 112.25 88.51 111.63 98.02
  C 111.25 103.84 108.20 105.26 102.64 105.26
  Q 68.98 105.24 35.32 105.25
  C 29.97 105.25 26.56 103.77 26.58 97.99
  C 26.60 88.06 27.11 80.78 39.06 81.75
  Q 68.63 84.15 98.01 88.48
  Z"
  />
  <path fill="#fdfdfd" fill-opacity="0.996"
    d="
  M 170.26 100.21
  C 173.31 98.60 177.00 96.11 179.38 100.28
  C 181.02 103.18 180.25 110.60 180.24 114.19
  A 0.89 0.69 81.9 0 1 179.81 114.95
  Q 179.36 115.14 178.91 114.99
  A 0.78 0.63 -81.9 0 1 178.48 114.27
  Q 178.63 105.54 178.42 103.07
  C 178.00 97.96 172.72 99.24 170.12 102.19
  A 1.35 1.29 66.8 0 0 169.79 103.07
  L 169.74 114.20
  A 0.85 0.67 81.7 0 1 169.31 114.95
  Q 168.87 115.14 168.43 114.96
  A 0.88 0.68 -81.3 0 1 168.01 114.20
  Q 167.99 102.90 168.00 91.61
  C 168.00 90.83 168.52 89.41 169.46 90.35
  A 1.44 0.94 -76.1 0 1 169.77 91.24
  L 169.80 99.95
  A 0.32 0.30 -14.3 0 0 170.26 100.21
  Z"
  />
  <path fill="#fdfdfd" fill-opacity="0.996"
    d="
  M 316.51 113.94
  Q 318.62 115.20 315.78 115.52
  Q 314.00 115.72 314.00 113.50
  L 314.01 91.32
  A 1.47 1.08 72.7 0 1 314.32 90.41
  C 315.27 89.35 315.85 90.72 315.82 91.54
  Q 315.47 102.37 316.04 113.18
  A 0.98 0.90 15.6 0 0 316.51 113.94
  Z"
  />
  <path fill="#fdfdfd" fill-opacity="0.996"
    d="
  M 471.29 99.79
  C 472.70 99.31 473.99 98.22 475.43 98.11
  C 487.72 97.21 484.27 121.39 471.22 113.98
  A 0.41 0.37 -65.4 0 0 470.67 114.22
  Q 470.35 115.08 469.51 115.03
  A 0.60 0.52 -88.5 0 1 469.02 114.44
  L 469.02 91.07
  A 1.08 0.83 76.9 0 1 469.40 90.24
  C 471.51 88.78 470.78 98.55 470.80 99.44
  A 0.38 0.37 80.3 0 0 471.29 99.79
  Z
  M 470.91 102.68
  L 470.72 111.29
  A 1.05 0.95 22.6 0 0 471.10 112.10
  C 477.63 117.44 481.64 110.61 480.89 104.74
  C 480.18 99.22 475.12 97.84 471.28 101.81
  A 1.37 1.24 -24.8 0 0 470.91 102.68
  Z"
  />
  <circle fill="#ffffff" cx="187.00" cy="93.00" r="1.49" />
  <circle fill="#ffffff" cx="289.75" cy="93.01" r="1.47" />
  <circle fill="#fdfdfd" fill-opacity="0.996" cx="363.50" cy="93.00" r="1.49" />
  <circle fill="#ffffff" cx="461.75" cy="93.01" r="1.47" />
  <path fill="#fdfdfd" fill-opacity="0.996"
    d="
  M 162.73 111.69
  Q 162.87 111.84 162.93 112.08
  A 0.84 0.62 -32.3 0 1 162.66 112.77
  Q 156.93 118.24 150.69 113.56
  C 145.60 109.76 145.67 99.55 149.60 95.00
  C 154.82 88.94 164.14 93.68 161.97 95.20
  A 0.87 0.72 41.1 0 1 161.10 95.18
  C 147.84 87.20 144.45 110.73 154.66 113.48
  Q 158.39 114.49 161.93 111.75
  A 0.67 0.46 -38.9 0 1 162.73 111.69
  Z"
  />
  <path fill="#fdfdfd" fill-opacity="0.996"
    d="
  M 236.87 111.32
  C 239.12 113.40 242.43 114.47 245.28 113.41
  C 247.77 112.49 249.17 109.82 247.77 107.45
  C 245.20 103.10 234.71 103.58 236.50 96.29
  C 237.85 90.83 244.71 90.86 248.53 93.68
  C 249.19 94.17 249.73 95.26 248.53 95.47
  A 1.22 0.88 54.1 0 1 247.65 95.18
  C 245.05 93.05 240.21 92.49 238.54 95.99
  C 236.12 101.08 246.28 102.57 248.72 105.46
  Q 251.42 108.67 249.53 111.88
  C 246.69 116.69 240.28 116.38 236.26 113.16
  C 235.64 112.66 234.89 111.41 236.03 111.06
  A 0.98 0.72 53.6 0 1 236.87 111.32
  Z"
  />
  <path fill="#fdfdfd" fill-opacity="0.996"
    d="
  M 328.86 96.99
  C 329.79 90.91 336.80 90.66 341.06 93.77
  Q 342.50 94.82 341.03 95.38
  A 0.93 0.80 52.7 0 1 340.18 95.20
  C 334.15 90.17 326.03 97.41 333.87 101.28
  C 337.92 103.28 345.88 106.01 341.83 112.21
  C 338.93 116.65 332.77 116.25 328.90 113.29
  C 328.26 112.80 327.19 111.28 328.67 111.07
  A 1.18 0.88 57.3 0 1 329.52 111.39
  C 332.22 113.89 337.88 115.27 340.16 111.46
  C 344.73 103.81 327.64 104.90 328.86 96.99
  Z"
  />
  <path fill="#fdfdfd" fill-opacity="0.996"
    d="
  M 447.31 113.45
  L 455.96 113.51
  A 0.83 0.69 -9.4 0 1 456.69 113.94
  C 457.49 115.77 446.45 114.94 445.33 114.89
  A 0.53 0.52 1.8 0 1 444.83 114.37
  L 444.81 92.95
  A 0.77 0.73 80.1 0 1 445.28 92.24
  Q 446.60 91.76 446.59 92.99
  Q 446.52 107.79 446.79 112.94
  A 0.53 0.52 88.9 0 0 447.31 113.45
  Z"
  />
  <path fill="#fdfdfd" fill-opacity="0.996"
    d="
  M 196.27 100.25
  Q 197.51 99.71 198.68 98.99
  C 202.63 96.55 206.32 98.96 206.48 103.50
  Q 206.56 105.85 206.49 114.18
  A 0.92 0.72 81.5 0 1 206.05 114.96
  Q 205.51 115.20 205.07 114.88
  A 1.18 0.77 -78.1 0 1 204.73 114.00
  C 204.78 110.98 205.43 103.66 204.14 101.14
  C 202.49 97.91 198.04 100.05 196.31 102.39
  A 1.63 1.49 65.0 0 0 196.02 103.31
  L 195.99 114.18
  A 0.88 0.68 81.4 0 1 195.56 114.95
  Q 195.12 115.14 194.68 114.96
  A 0.89 0.67 -81.5 0 1 194.26 114.19
  L 194.23 99.71
  A 1.41 1.11 71.1 0 1 194.54 98.83
  Q 195.71 97.51 195.80 99.95
  A 0.34 0.34 77.4 0 0 196.27 100.25
  Z"
  />
  <path fill="#fdfdfd" fill-opacity="0.996"
    d="
  M 221.82 104.20
  C 222.96 99.30 217.13 98.50 214.06 100.87
  A 1.76 1.23 -56.9 0 1 213.17 101.23
  Q 211.95 101.28 212.38 100.50
  A 3.10 3.07 -84.6 0 1 214.08 99.08
  C 226.52 94.78 223.74 107.50 223.73 114.24
  A 0.62 0.56 86.9 0 1 223.24 114.85
  Q 222.25 114.98 221.83 113.92
  A 0.47 0.41 -20.9 0 0 221.26 113.71
  L 216.49 115.50
  Q 213.64 116.57 212.05 113.19
  C 209.19 107.13 216.84 104.98 221.18 104.71
  A 0.71 0.65 4.2 0 0 221.82 104.20
  Z
  M 214.32 113.28
  Q 216.27 114.78 218.52 113.81
  Q 223.57 111.65 221.73 106.63
  A 0.66 0.65 -12.2 0 0 221.06 106.20
  Q 218.19 106.43 215.67 107.70
  C 213.48 108.79 212.00 111.49 214.32 113.28
  Z"
  />
  <path fill="#fdfdfd" fill-opacity="0.996"
    d="
  M 260.7090 115.4998
  A 8.74 7.54 90.4 0 1 253.2302 106.7074
  A 8.74 7.54 90.4 0 1 260.8310 98.0202
  A 8.74 7.54 90.4 0 1 268.3098 106.8126
  A 8.74 7.54 90.4 0 1 260.7090 115.4998
  Z
  M 260.8852 114.0000
  A 7.23 5.64 89.8 0 0 266.5000 106.7503
  A 7.23 5.64 89.8 0 0 260.8348 99.5400
  A 7.23 5.64 89.8 0 0 255.2200 106.7897
  A 7.23 5.64 89.8 0 0 260.8852 114.0000
  Z"
  />
  <path fill="#fdfdfd" fill-opacity="0.996"
    d="
  M 283.40 114.31
  C 268.44 122.04 268.07 92.35 282.97 98.93
  C 283.72 99.26 284.64 100.12 283.70 100.81
  A 0.81 0.65 41.5 0 1 282.86 100.77
  C 271.51 93.30 270.20 119.88 283.12 112.79
  A 1.38 0.87 -42.7 0 1 284.05 112.62
  C 285.25 112.96 283.91 114.05 283.40 114.31
  Z"
  />
  <path fill="#fdfdfd" fill-opacity="0.996"
    d="
  M 306.43 114.37
  Q 306.45 112.99 305.31 113.76
  C 295.52 120.31 290.11 105.85 305.40 104.69
  A 0.69 0.66 3.2 0 0 306.02 104.16
  C 307.14 99.14 301.35 98.63 298.31 100.86
  A 1.87 1.10 -52.3 0 1 297.41 101.22
  Q 296.23 101.26 296.73 100.31
  A 3.05 3.02 6.4 0 1 298.63 98.81
  C 310.96 95.59 308.00 107.43 307.98 114.20
  A 0.83 0.71 79.8 0 1 307.55 114.93
  Q 306.41 115.45 306.43 114.37
  Z
  M 305.77 106.38
  C 302.84 106.08 295.10 108.43 297.88 112.65
  C 299.76 115.50 303.94 113.83 305.79 111.91
  A 1.37 1.24 -24.8 0 0 306.16 111.04
  L 306.28 106.93
  A 0.56 0.53 3.9 0 0 305.77 106.38
  Z"
  />
  <path fill="#fdfdfd" fill-opacity="0.996"
    d="
  M 345.96 108.52
  C 344.82 101.64 350.88 95.20 357.54 99.24
  Q 358.90 100.06 357.71 100.82
  A 0.84 0.72 44.1 0 1 356.86 100.77
  C 345.72 93.42 343.72 119.96 357.51 112.56
  Q 358.48 112.04 358.51 112.97
  A 1.14 0.93 -23.8 0 1 358.09 113.79
  C 353.10 117.81 346.95 114.48 345.96 108.52
  Z"
  />
  <path fill="#fdfdfd" fill-opacity="0.996"
    d="
  M 371.19 101.19
  C 375.45 94.70 383.93 98.69 383.15 106.39
  A 0.58 0.58 2.2 0 1 382.58 106.91
  L 372.25 106.98
  A 1.01 0.99 -7.0 0 0 371.27 108.21
  Q 373.32 116.55 381.32 113.21
  A 1.07 0.72 -33.2 0 1 382.22 113.22
  C 382.86 113.67 382.25 114.24 381.77 114.45
  C 372.44 118.67 366.19 108.80 371.19 101.19
  Z
  M 371.95 102.88
  Q 369.96 105.75 373.36 105.73
  L 381.12 105.70
  A 0.69 0.68 85.0 0 0 381.79 104.89
  C 380.75 98.72 375.72 97.48 371.95 102.88
  Z"
  />
  <path fill="#fdfdfd" fill-opacity="0.996"
    d="
  M 389.95 100.36
  C 392.49 98.24 396.09 96.86 398.50 99.42
  C 400.84 101.90 400.08 110.85 399.96 114.19
  A 0.93 0.72 82.0 0 1 399.52 114.96
  Q 399.00 115.20 398.56 114.87
  A 1.16 0.77 -77.6 0 1 398.23 114.01
  Q 398.40 104.89 398.17 103.07
  C 397.51 97.72 392.05 99.25 389.81 102.39
  A 1.74 1.55 65.7 0 0 389.52 103.31
  L 389.49 114.18
  A 0.89 0.67 81.5 0 1 389.07 114.95
  Q 388.62 115.14 388.20 114.96
  A 0.88 0.68 -81.4 0 1 387.77 114.19
  L 387.80 99.27
  A 0.65 0.57 86.4 0 1 388.29 98.64
  Q 389.50 98.49 389.57 100.18
  Q 389.59 100.66 389.95 100.36
  Z"
  />
  <path fill="#fdfdfd" fill-opacity="0.996"
    d="
  M 416.58 114.27
  C 400.46 121.89 401.87 91.64 416.20 99.08
  C 416.91 99.46 417.63 100.51 416.54 100.87
  A 1.15 0.81 47.7 0 1 415.64 100.67
  C 407.50 95.09 402.95 110.72 410.79 113.65
  Q 413.48 114.66 416.17 112.64
  A 0.96 0.73 -47.2 0 1 417.04 112.49
  C 418.16 112.99 417.28 113.94 416.58 114.27
  Z"
  />
  <path fill="#fdfdfd" fill-opacity="0.996"
    d="
  M 426.51 115.45
  C 416.53 114.24 417.83 98.01 426.61 98.05
  C 431.31 98.07 433.69 101.99 433.16 106.40
  A 0.59 0.57 -86.0 0 1 432.59 106.91
  L 422.36 106.97
  A 1.12 1.10 -8.2 0 0 421.28 108.38
  Q 423.66 116.52 431.33 113.21
  A 1.04 0.78 -35.2 0 1 432.22 113.24
  C 434.34 114.66 427.30 115.54 426.51 115.45
  Z
  M 421.95 102.88
  Q 419.96 105.75 423.36 105.73
  L 431.12 105.70
  A 0.69 0.68 85.0 0 0 431.79 104.89
  C 430.75 98.72 425.72 97.48 421.95 102.88
  Z"
  />
  <path fill="#fdfdfd" fill-opacity="0.996"
    d="
  M 489.68 100.59
  C 491.17 99.20 495.14 96.07 495.68 99.17
  A 0.46 0.41 -5.4 0 1 495.23 99.66
  C 487.50 99.72 489.52 109.35 489.48 114.19
  A 0.88 0.68 81.4 0 1 489.05 114.96
  Q 488.63 115.14 488.20 115.00
  A 0.82 0.65 -82.8 0 1 487.75 114.26
  L 487.79 99.27
  A 0.63 0.58 86.4 0 1 488.29 98.65
  Q 489.69 98.44 489.40 100.45
  Q 489.33 100.92 489.68 100.59
  Z"
  />
  <path fill="#fdfdfd" fill-opacity="0.996"
    d="
  M 506.82 113.78
  C 502.48 116.55 495.84 116.09 497.22 109.23
  C 497.84 106.17 504.06 104.93 506.88 104.65
  A 0.58 0.57 -2.3 0 0 507.40 104.09
  C 507.51 98.93 502.92 98.52 499.32 100.92
  A 1.17 0.84 -46.9 0 1 498.42 101.10
  C 497.24 100.73 498.42 99.62 499.02 99.32
  C 511.18 93.43 509.35 106.98 509.21 114.24
  A 0.69 0.60 86.0 0 1 508.72 114.89
  Q 507.82 115.05 507.40 113.97
  A 0.40 0.40 62.9 0 0 506.82 113.78
  Z
  M 507.05 106.37
  C 494.56 105.16 498.19 120.06 507.15 111.84
  A 1.21 1.04 71.7 0 0 507.50 110.99
  L 507.53 106.92
  A 0.55 0.54 -87.1 0 0 507.05 106.37
  Z"
  />
  <path fill="#fdfdfd" fill-opacity="0.996"
    d="
  M 517.18 100.60
  C 518.66 99.28 522.50 96.10 523.09 99.08
  A 0.47 0.43 -6.6 0 1 522.65 99.59
  C 514.97 99.96 517.02 109.45 516.97 114.43
  A 0.70 0.59 85.0 0 1 516.50 115.10
  Q 516.06 115.19 515.68 115.00
  A 0.98 0.71 -80.3 0 1 515.28 114.19
  L 515.29 99.24
  A 0.69 0.62 84.3 0 1 515.77 98.58
  Q 517.15 98.24 516.89 100.45
  Q 516.83 100.92 517.18 100.60
  Z"
  />
  <rect fill="#fdfdfd" fill-opacity="0.996" x="-0.87" y="-8.35"
    transform="translate(187.12,106.68) rotate(-0.1)" width="1.74" height="16.70" rx="0.75" />
  <path fill="#fdfdfd" fill-opacity="0.996"
    d="
  M 532.26 112.54
  Q 532.65 113.63 533.01 112.52
  L 537.38 99.27
  A 1.09 0.98 -88.4 0 1 538.01 98.61
  C 540.23 97.82 538.86 100.17 538.61 100.90
  C 535.67 109.82 532.88 123.23 526.26 122.29
  A 0.69 0.62 2.6 0 1 525.68 121.72
  Q 525.55 120.37 527.29 120.91
  A 1.23 1.00 34.2 0 0 528.21 120.83
  C 531.20 118.98 532.24 116.45 530.84 112.99
  Q 528.15 106.33 525.45 99.68
  A 1.07 0.83 54.7 0 1 525.49 98.78
  C 527.11 96.25 531.88 111.48 532.26 112.54
  Z"
  />
  <rect fill="#fdfdfd" fill-opacity="0.996" x="-0.88" y="-8.25"
    transform="translate(289.88,106.75) rotate(0.1)" width="1.76" height="16.50" rx="0.60" />
  <rect fill="#fdfdfd" fill-opacity="0.996" x="-0.88" y="-8.25"
    transform="translate(363.63,106.75) rotate(0.1)" width="1.76" height="16.50" rx="0.60" />
  <rect fill="#fdfdfd" fill-opacity="0.996" x="461.00" y="98.50" width="1.76" height="16.52"
    rx="0.66" />
</svg>