<?xml version="1.0" encoding="UTF-8" standalone="no"?>
<!DOCTYPE svg PUBLIC "-//W3C//DTD SVG 1.1//EN" "http://www.w3.org/Graphics/SVG/1.1/DTD/svg11.dtd">
<svg xmlns="http://www.w3.org/2000/svg" version="1.1" viewBox="0 0 186 156">
  <path fill="#c2c2c2"
    d="
  M 57.84 14.73
  A 0.42 0.42 26.9 0 1 57.67 14.16
  L 63.35 4.04
  A 1.24 1.18 5.6 0 1 64.08 3.47
  C 68.17 2.23 72.17 0.58 76.40 1.36
  Q 85.84 3.10 92.04 10.28
  C 94.72 13.36 95.41 17.59 96.49 21.53
  A 1.23 1.18 52.6 0 1 96.39 22.45
  L 90.97 32.35
  A 0.63 0.63 28.6 0 1 90.11 32.60
  L 57.84 14.73
  Z"
  />
  <path fill="#c2c2c2"
    d="
  M 52.17 25.15
  C 63.01 30.83 74.17 36.55 84.58 42.85
  A 0.53 0.52 29.6 0 1 84.78 43.55
  Q 61.30 86.18 37.78 128.85
  Q 36.65 130.89 34.76 132.24
  Q 18.56 143.79 2.03 154.74
  Q 1.62 155.02 1.64 154.52
  Q 2.30 134.73 3.18 115.12
  Q 3.28 112.81 4.40 110.78
  Q 27.95 68.06 51.49 25.36
  A 0.51 0.51 -61.9 0 1 52.17 25.15
  Z"
  />
  <path fill="#c2c2c2"
    d="
  M 186.00 126.06
  L 186.00 156.00
  L 60.19 156.00
  L 60.06 126.44
  A 0.42 0.42 89.2 0 1 60.48 126.02
  L 186.00 126.06
  Z"
  />
</svg>