<svg class="icon" viewBox="0 0 1024 1024" xmlns="http://www.w3.org/2000/svg" width="48" height="48"><path d="M494.49 955.7a25.573 25.573 0 0 0 17.612 7.065c6.554 0 12.903-2.56 17.613-7.066m.103 0 474.112-454.041c20.89-19.968 19.558-53.146-1.23-73.012s-54.374-19.968-75.16-.102L512.204 825.856 96.973 428.544c-20.89-19.968-54.477-19.763-75.162.102-20.89 19.764-22.22 53.044-1.331 72.91l474.112 454.04h35.226zm0 0" fill="#618ee5"/><path d="M494.182 603.34c4.71 4.506 11.06 6.964 17.613 6.964 6.554 0 12.903-2.56 17.613-6.963m.102 0 474.112-454.042c20.89-19.968 19.559-53.145-1.228-73.011s-54.375-19.968-75.162-.102L511.898 473.498 96.563 76.186c-20.89-19.968-54.477-19.764-75.161.102-20.788 19.866-22.119 53.146-1.23 73.011l474.113 454.042h35.225zm0 0" fill="#618ee5"/></svg>