<svg xmlns="http://www.w3.org/2000/svg" viewBox="0 0 100 110"><g stroke-width="2" fill="none"><path stroke="#b0de9f" vector-effect="non-scaling-stroke" d="M72.76 17.17c-16.32-1.13-32.69-2.18-49.03-3.02-4.1-.22-5.8 2.14-5.54 6.15q.4 6.13.91 12.25c.37 4.43 3.04 5.33 7.15 4.59q21.54-3.87 43.1-7.58 4.76-.82 6.84-2.1c5.07-3.14 2.55-9.88-3.43-10.29"/><path stroke="#92a1eb" vector-effect="non-scaling-stroke" d="M87.29 39.74c-.93-5.03-6.03-7.46-10.76-6.76q-27.15 4.05-54.21 8.64c-5.42.93-12.39 3.68-9.89 10.89 1.53 4.4 6.17 4.74 10.32 5.02q28.12 1.92 56.27 3.68c5.23.32 9.51-1.3 9.74-6.96q.23-5.41-1.47-14.51"/><path stroke="#e69d98" vector-effect="non-scaling-stroke" d="M92.55 77.85c1.15-7.97-3.16-8.96-9.55-9.84q-38.63-5.3-66-7.51c-9.05-.72-9.77 11.08-9.52 16.98.21 5.07 3.61 6.78 8.44 6.78q33.97-.02 67.94 0c5.09 0 7.94-1.19 8.69-6.41"/></g><path fill="#fff" d="M100 51.06v8.75c-2.38 25.88-19.91 47.4-46.56 50.19h-6.5q-17.11-1.94-28.96-12.87C-7.62 73.5-5.21 27.4 24.71 8.17 46.15-5.6 72.45-.16 87.9 19.52Q98.46 32.98 100 51.06ZM72.76 17.17c-16.32-1.13-32.69-2.18-49.03-3.02-4.1-.22-5.8 2.14-5.54 6.15q.4 6.13.91 12.25c.37 4.43 3.04 5.33 7.15 4.59q21.54-3.87 43.1-7.58 4.76-.82 6.84-2.1c5.07-3.14 2.55-9.88-3.43-10.29Zm14.53 22.57c-.93-5.03-6.03-7.46-10.76-6.76q-27.15 4.05-54.21 8.64c-5.42.93-12.39 3.68-9.89 10.89 1.53 4.4 6.17 4.74 10.32 5.02q28.12 1.92 56.27 3.68c5.23.32 9.51-1.3 9.74-6.96q.23-5.41-1.47-14.51Zm5.26 38.11c1.15-7.97-3.16-8.96-9.55-9.84q-38.63-5.3-66-7.51c-9.05-.72-9.77 11.08-9.52 16.98.21 5.07 3.61 6.78 8.44 6.78q33.97-.02 67.94 0c5.09 0 7.94-1.19 8.69-6.41Z"/><path fill="#60bd3f" d="M23.73 14.15c16.34.84 32.71 1.89 49.03 3.02 5.98.41 8.5 7.15 3.43 10.29q-2.08 1.28-6.84 2.1-21.56 3.71-43.1 7.58c-4.11.74-6.78-.16-7.15-4.59q-.51-6.12-.91-12.25c-.26-4.01 1.44-6.37 5.54-6.15Z"/><path fill="#2542d6" d="M76.53 32.98c4.73-.7 9.83 1.73 10.76 6.76q1.7 9.1 1.47 14.51c-.23 5.66-4.51 7.28-9.74 6.96q-28.15-1.76-56.27-3.68c-4.15-.28-8.79-.62-10.32-5.02-2.5-7.21 4.47-9.96 9.89-10.89q27.06-4.59 54.21-8.64Z"/><path fill="#cc3a31" d="M83 68.01c6.39.88 10.7 1.87 9.55 9.84-.75 5.22-3.6 6.41-8.69 6.41q-33.97-.02-67.94 0c-4.83 0-8.23-1.71-8.44-6.78-.25-5.9.47-17.7 9.52-16.98q27.37 2.21 66 7.51Z"/></svg>