<svg xmlns="http://www.w3.org/2000/svg" viewBox="0 0 606 146"><g stroke-width="2" fill="none"><path stroke="#b0de9f" vector-effect="non-scaling-stroke" d="M93.77 38.31c-16.6-1.37-33.35-2.15-49.97-3.14-4.91-.29-6.87 1.4-6.57 6.34q.37 6.04.88 12.1c.35 4.16 2.91 5.26 6.85 4.56q22.46-3.97 44.89-8.16c5.38-1 9.39-2.61 7.36-8.96q-.81-2.52-3.44-2.74"/><path stroke="#92a1eb" vector-effect="non-scaling-stroke" d="M106.37 60.93c-.9-5.14-5.99-7.66-10.84-6.94q-26.59 3.95-53.1 8.39c-4.88.82-11.35 2.58-11.49 8.01-.13 4.74 3.41 7.75 8 8.05q29.53 1.91 59.08 3.76c5.22.33 9.52-1.29 9.75-6.95q.2-5.2-1.4-14.32"/><path stroke="#e69d98" vector-effect="non-scaling-stroke" d="M111.63 98.02c.62-9.51-7.05-8.57-13.62-9.54q-29.38-4.33-58.95-6.73c-11.95-.97-12.46 6.31-12.48 16.24-.02 5.78 3.39 7.26 8.74 7.26q33.66-.01 67.32.01c5.56 0 8.61-1.42 8.99-7.24"/></g><path fill="#fff" d="M69.084 131A54.75 49.86 90.1 0 1 19.32 76.163 54.75 49.86 90.1 0 1 69.276 21.5a54.75 49.86 90.1 0 1 49.764 54.837A54.75 49.86 90.1 0 1 69.084 131ZM93.77 38.31c-16.6-1.37-33.35-2.15-49.97-3.14-4.91-.29-6.87 1.4-6.57 6.34q.37 6.04.88 12.1c.35 4.16 2.91 5.26 6.85 4.56q22.46-3.97 44.89-8.16c5.38-1 9.39-2.61 7.36-8.96q-.81-2.52-3.44-2.74Zm12.6 22.62c-.9-5.14-5.99-7.66-10.84-6.94q-26.59 3.95-53.1 8.39c-4.88.82-11.35 2.58-11.49 8.01-.13 4.74 3.41 7.75 8 8.05q29.53 1.91 59.08 3.76c5.22.33 9.52-1.29 9.75-6.95q.2-5.2-1.4-14.32Zm5.26 37.09c.62-9.51-7.05-8.57-13.62-9.54q-29.38-4.33-58.95-6.73c-11.95-.97-12.46 6.31-12.48 16.24-.02 5.78 3.39 7.26 8.74 7.26q33.66-.01 67.32.01c5.56 0 8.61-1.42 8.99-7.24ZM282.94 49.3l-10.89-.05a.8.69-8.5 0 1-.71-.45q-.4-1.03.1-1.92a.96.75 11 0 1 .79-.4l10.74-.02a.5.5 0 0 0 .5-.5l.04-16.38a.6.56 86.8 0 1 .49-.59q1.06-.13 2.01.14a.69.65-82.9 0 1 .48.66l.04 16.17a.5.5 0 0 0 .5.5l10.66.05a.79.68-9.1 0 1 .71.44q.41 1.03-.08 1.9a.95.79 11.9 0 1-.79.42l-10.54-.01a.51.5 90 0 0-.5.51l-.04 22.6a.52.51-89.4 0 0 .5.52l11.82.07a.98.76-11.7 0 1 .79.39q.6 1.02 0 2a.96.81 12.7 0 1-.79.41l-29.22-.01a.71.68-8.4 0 1-.67-.48q-.27-.89-.16-1.77a.61.57 3.8 0 1 .6-.49l13.64-.05a.51.5 0 0 0 .51-.5l-.03-22.64a.52.51-89.4 0 0-.5-.52ZM425.06 38.66l10.13-.12a.89.8-12.9 0 0 .83-1.18l-3.6-6.9a.6.51 59 0 1 .12-.73q.84-.58 1.73-.57a1.05.87 70.3 0 1 .79.47c1.08 1.62 4.65 7.21 3.57 8.67q-.25.35.16.34l6.66-.17a1.17 1.04 17.5 0 0 .83-.37q3.04-3.6 5.21-7.72a.94.79-75.2 0 1 .72-.51q1.28-.05 2.1.99a.7.64-47 0 1-.01.81l-4.57 6.43q-.3.42.21.42l8.02.01a.5.5 0 0 1 .5.5l.02 9.15a.58.47-88.6 0 1-.5.58l-1.98-.13a.66.51-88.7 0 1-.48-.65l-.06-6.22a.52.5-.6 0 0-.52-.49h-37.89a.51.5.6 0 0-.51.49l-.06 6.41a.6.56 86.8 0 1-.49.59q-.91.12-1.74-.12a.71.67-82.4 0 1-.48-.67l.01-8.92a.51.51 0 0 1 .51-.51l7.48-.03q1.2-.01.54-.94l-4.22-6a.6.5 52.2 0 1 .03-.74q.6-.55 1.39-.73a.97.86 59 0 1 .85.27q2.83 2.84 4.73 6.42a1.14.67 52.7 0 1 .11.92l-.31.6a.24.21-74.7 0 0 .17.35Z"/><path fill="#fdfdfd" fill-opacity=".996" d="m400.32 60.87 5.38-.78a.82.72-18.4 0 1 .79.33q.54.89.23 1.84a.93.76 2 0 1-.7.53l-5.77.9a.61.57 85.6 0 0-.48.6l-.03 13.15a.54.51-90 0 1-.51.54l-1.71.01a.56.51-90 0 1-.51-.56l-.05-12.68a.43.43 85.5 0 0-.5-.43l-17.14 2.65a.88.88-13.2 0 1-.97-.6q-.72-2.28 1.37-2.53 8.39-.99 16.71-2.38a.61.59-5.3 0 0 .5-.58l.06-30.81a.77.67 81.5 0 1 .45-.7q.96-.36 1.86-.03a.8.7-81.5 0 1 .46.71l.05 30.4a.45.43-4.1 0 0 .51.42Z"/><path fill="#fff" d="m170.06 38.94 18.65.09a.51.5 0 0 1 .51.5l.01 23.16a.75.7 80.5 0 1-.46.69q-2.44.88-2.27-2.18a.88.87-88.4 0 0-.87-.93l-15.6.01a.51.5-90 0 0-.5.51l-.04 16.64a.59.57 86.7 0 1-.5.58q-1.07.13-2.03-.14a.69.63-82.8 0 1-.46-.65l-.09-16.34a.53.52 89.4 0 0-.52-.52l-15.96.01a.41.39 83.4 0 0-.37.5q.87 3.75-2.29 2.75a.7.67-81.5 0 1-.47-.66l-.01-23.42a.51.5 0 0 1 .51-.5l18.65-.06a.51.5 0 0 0 .51-.5l.05-8.18a.73.66 81.8 0 1 .46-.68q1.05-.36 2.06-.02a.76.67-82.6 0 1 .46.69l.06 8.14a.52.51 89.4 0 0 .51.51Zm-3.56 3.37a.31.31 0 0 0-.31-.31h-16.38a.31.31 0 0 0-.31.31v14.88a.31.31 0 0 0 .31.31h16.38a.31.31 0 0 0 .31-.31V42.31Zm19.987.105a.43.43 0 0 0-.43-.43l-16.14.03a.43.43 0 0 0-.43.43l.026 14.64a.43.43 0 0 0 .43.43l16.14-.03a.43.43 0 0 0 .43-.43l-.026-14.64ZM328.65 35.37q-9.3 9.7-21.46 15.41a.79.73-35.8 0 1-.83-.1q-.88-.75-1.22-1.91a.6.55-20.2 0 1 .35-.68q14.11-5.91 23.42-17.96a.96.89-68.4 0 1 .79-.38q3.03.19 1.29 2.62a.62.58-49.6 0 0 .04.77q9.32 9.59 21.71 14.44a.42.39 28.7 0 1 .2.61l-1.38 1.79a.71.63 29.6 0 1-.81.17q-12.17-5.3-21.4-14.79a.49.48-45.4 0 0-.7.01ZM490.48 38.31a1.13.98 73.3 0 1-.95-.6l-3.8-7.05a.62.52 58.4 0 1 .11-.75q1.03-.73 2.27-.39a1.2 1.15-6.2 0 1 .74.57l3.72 6.71a.62.62 55.9 0 1-.15.79q-.85.68-1.94.72Z"/><rect fill="#fff" x="-1.34" y="-4.63" transform="rotate(-37.6 180.128 -367.118)" width="2.68" height="9.26" rx=".94"/><path fill="#fff" d="M525.81 38.3c.02 13.55.5 26.69-4.81 39.47a.59.55-70.6 0 1-.68.35q-1.06-.3-1.73-.99a.8.71-56.9 0 1-.12-.83c5.71-13.29 4.22-29.19 4.37-40.7a.52.52-89.4 0 1 .52-.51l20.1-.11a.36.31-13 0 0 .34-.47l-2.02-3.59a.6.44 58.7 0 1 .06-.7q1.1-.82 2.34-.33a1.69.79 68 0 1 .7.65l2.81 4.08a1.02.89-14.8 0 0 .81.4l17.67-.01a.8.69-8.9 0 1 .72.45q.4 1.02-.1 1.91a.95.78 12.1 0 1-.78.4l-39.7.04a.5.49 0 0 0-.5.49ZM366.44 47.3l-7.4-.05a.78.71-8.7 0 1-.7-.46q-.41-1.14.14-2.03a1.03.73 11.2 0 1 .8-.36l7.84.01a.53.53 89.7 0 0 .53-.53v-7.74a.49.46-2.8 0 0-.54-.46c-1.85.21-8.41 2.52-8.13-.69a.66.61-1.9 0 1 .57-.56q8-1.14 15.58-3.91a1.1.96-36.6 0 1 .92.07q.89.55 1.38 1.56a.47.46 68.2 0 1-.27.65l-6.12 1.87a.73.62-10 0 0-.51.62l.06 8.58a.53.53.6 0 0 .52.53l7.09.11a.79.68-7.9 0 1 .7.45q.33.93.01 1.81a.76.68 8.6 0 1-.7.46h-6.67q-1.78 0-.7 1.42l7.08 9.26a.79.74 42.1 0 1 .07.85q-.48.87-1.27 1.45a.48.47 55.3 0 1-.69-.13l-4.76-7.37q-.82-1.28-.82.25l.03 24.24a.76.7 80.7 0 1-.46.7q-.92.33-1.81.01a.78.69-80.9 0 1-.45-.71l-.02-23.33a.66.38-81.4 0 0-.2-.51q-.24-.16-.39.23-2.87 7.39-7.72 13.62a.52.49-51.3 0 1-.72.1q-.94-.76-1.13-1.75a1.23.9-36.2 0 1 .28-.88q6.12-7.6 8.93-16.89a.38.37-81.3 0 0-.35-.49ZM202.6 76.32q.1 2.43-2.29 1.4a.79.73-79.3 0 1-.45-.71l-.06-44.47a.49.49 89.4 0 1 .49-.5h42.92a.51.49 0 0 1 .51.49l.01 45.16a.53.49-90 0 1-.49.53l-1.98.02a.62.43 85 0 1-.45-.54l-.2-1.68a.65.53-2.9 0 0-.65-.47l-36.9.25a.5.46 88.8 0 0-.46.52Zm38.118-41.183a.42.42 0 0 0-.421-.42l-37.42.066a.42.42 0 0 0-.42.42l.066 37.18a.42.42 0 0 0 .42.42l37.42-.066a.42.42 0 0 0 .42-.42l-.065-37.18ZM393.33 39.88a.94.87-58.9 0 1 .23 1.12q-.28.6-1.2 1.27a.6.57 49.7 0 1-.76-.08q-3.55-3.71-7.91-6.45a.82.68 22.7 0 1-.39-.75q.19-1.07 1.22-1.39a1.05.96-33.2 0 1 .92.15l7.89 6.13Z"/><path fill="#60bd3f" d="M43.8 35.17c16.62.99 33.37 1.77 49.97 3.14q2.63.22 3.44 2.74c2.03 6.35-1.98 7.96-7.36 8.96q-22.43 4.19-44.89 8.16c-3.94.7-6.5-.4-6.85-4.56q-.51-6.06-.88-12.1c-.3-4.94 1.66-6.63 6.57-6.34Z"/><path fill="#fff" d="m262.33 54.8.12 22.39a.8.73 80.5 0 1-.47.73q-.85.31-1.77-.02a.78.69-80.9 0 1-.45-.71l-.01-21.2q0-1.11-.71-.27-2.81 3.27-6.62 5.8a.8.73-44.5 0 1-.85.03q-1.14-.75-.93-2.02a1.31 1.01-16.7 0 1 .55-.77q9.51-6.42 14.87-16.53a.32.31-75.3 0 0-.26-.47l-13.31-.2a.93.72-10.6 0 1-.77-.39q-.54-.98-.15-1.95a.83.73 10 0 1 .74-.45l16.89.01a1.01 1.01-79 0 1 .93 1.39q-2.26 5.55-6.41 10.67a.57.55-47.9 0 0 .03.74l6.67 6.79a.93.87 31.5 0 1 .24.86q-.36 1.26-1.41 1.82a.61.57 58 0 1-.75-.2q-2.49-3.54-5.8-6.23-.38-.3-.37.18ZM489.05 65.88q-9.73 7.86-21.62 11.91a1.11.93-34.3 0 1-.9-.09q-1.01-.7-1.31-2.07a.56.54-14.8 0 1 .39-.64q11.77-3.4 21.12-11.17a.49.47-41.3 0 0 .06-.69q-8.24-9.16-12.8-20.44a.81.73 78.3 0 0-.68-.5l-7.24-.2a.55.47.6 0 1-.54-.47l-.02-2a.56.5 0 0 1 .56-.5l46.62-.01a.75.68-8.7 0 1 .69.46q.36 1.06.02 2.07a.76.66 7.5 0 1-.68.45l-7.36.11a.74.72-79.5 0 0-.68.48Q500.31 54.09 492 63.1a.47.47-47.9 0 0 .03.68q9.39 8.02 21.11 11.18a.55.52 13 0 1 .41.62q-.27 1.34-1.35 1.97a1.31 1.04 33.6 0 1-.95.08q-12-3.56-21.44-11.74a.59.58-43.7 0 0-.76-.01Zm1.34-5.59q7.75-9 10.84-17.66a.36.35-79.7 0 0-.33-.48l-23.46.02a.35.34 78.8 0 0-.31.48q4.13 10.52 11.39 17.72a1.28 1.28 42.5 0 0 1.87-.08ZM544.05 44.94l19.64.06a.77.68-9.3 0 1 .7.44q.78 2.07-1.63 2.06-10-.01-19.98.01a.86.84 14 0 0-.75.44l-4.59 8.18a.32.31-74.5 0 0 .26.47l10.01.11a.53.5-90 0 0 .5-.53l.06-4.89a.75.65 82 0 1 .45-.69q.93-.32 1.82-.01a.79.64-82.9 0 1 .44.7l.12 4.87a.55.53 0 0 0 .54.52l11.29.07a.78.71-9.9 0 1 .71.45q.86 2.17-1.63 2.06-1.68-.08-10.45.02a.53.49 0 0 0-.53.49l.07 5.9a.55.52-.5 0 0 .55.51l14.55.07a.71.66-7.6 0 1 .67.47q.27.9.16 1.78a.6.57 3.9 0 1-.59.49l-14.9.03a.52.51 0 0 0-.51.5l-.05 7.9a.6.56 86.8 0 1-.49.59q-.93.12-1.76-.12a.72.65-82.4 0 1-.46-.67l-.06-7.69a.51.51 89.8 0 0-.51-.51L529.06 69a.79.72-9.7 0 1-.72-.46q-.41-1.04.1-1.92a1 .78 11.1 0 1 .79-.4l18.38-.04a.53.51.6 0 0 .53-.5l.08-5.82a.57.53 2.8 0 0-.53-.54q-6.92-.43-13.77.43a.67.62-13 0 1-.69-.4l-.49-1.31a.87.81-35.2 0 1 .18-.85q3.64-4.1 5.73-9.13a.42.41 10.9 0 0-.39-.57h-7.72a.78.69-8 0 1-.7-.47q-.28-.8-.05-1.59a.77.64 6.6 0 1 .69-.45l9.36-.06a.8.71-76.8 0 0 .68-.48l1.88-4.34a.72.71-75.2 0 1 .72-.43q.97.1 1.75.54a.6.57-65.1 0 1 .24.73l-1.37 3.53a.34.34-78.8 0 0 .31.47ZM222.8 54.57l-.01 9.39a.51.5.6 0 0 .51.51l13.37.04a.61.56-3.2 0 1 .6.49q.11.8-.13 1.52a.74.67 8 0 1-.69.47h-28.9a.73.66-8.2 0 1-.68-.46q-.25-.75-.15-1.52a.6.57 3.2 0 1 .59-.5l12.14-.04a.51.49-.6 0 0 .51-.5l-.05-9.35a.53.53 89.4 0 0-.53-.52l-9.31-.09a.82.74-11.2 0 1-.72-.43q-.97-2.15 1.38-2.13 6.32.04 8.63-.05a.55.52-.6 0 0 .54-.52v-7.77a.54.52 0 0 0-.54-.52l-11.07-.09a.73.65-7 0 1-.67-.46q-.24-.77-.15-1.54a.61.56 3.2 0 1 .6-.49h27.37a.59.57-3.3 0 1 .58.5q.1.8-.13 1.51a.72.66 7.5 0 1-.68.47l-11.91.04a.51.49 0 0 0-.51.49l-.01 7.95a.51.5 0 0 0 .51.5l10.41.04a.77.66-8.5 0 1 .7.44q.31.82.02 1.6a.78.66 8.3 0 1-.71.44l-10.4.06a.52.52-.6 0 0-.51.52Z"/><rect fill="#fff" x="-12.96" y="-1.38" transform="rotate(.1 -27119.743 188526.877)" width="25.92" height="2.76" rx=".62"/><path fill="#fff" d="m444.44 49.81-22.63-.06a.8.69-8.9 0 1-.72-.45q-.31-.8 0-1.6a.79.68 9.1 0 1 .71-.44q13.73-.01 27.45-.01.86 0 1.49 1.03a.6.57-35.2 0 1-.15.76q-5.43 4.43-11.89 7.13c-1.42.59-1.9 1.43-1.35 2.88a.77.68-9.3 0 0 .7.44l20.64.02a.76.68-8.6 0 1 .7.46q.32.94.05 1.85a.73.62 6.7 0 1-.68.45l-20.89.06a.53.51-88.8 0 0-.51.51q-.19 5.94-.2 11.65c-.01 4.93-8.26 3.56-11.4 3.51a1.12.92-14.4 0 1-.83-.39q-.52-.71-.62-1.58a.48.46-2.7 0 1 .48-.51l8.65-.04a.79.78 0 0 0 .79-.78l-.02-11.91a.5.5 0 0 0-.5-.5l-20.41.04a.71.64-8.1 0 1-.68-.46q-.26-.85-.14-1.86a.59.57 3.3 0 1 .58-.5l20.64-.02a.52.5-88.8 0 0 .5-.5l.13-3.13a.78.72-9.9 0 1 .51-.66q5.25-1.88 9.7-5.1.41-.29-.1-.29ZM391.56 56.06q-.09.31-.29.46a.74.48 46.8 0 1-.78-.19q-4.1-3.94-9.04-6.85a.7.61 24.8 0 1-.33-.74c1.12-3.74 9.92 4.35 11.21 5.49a.66.63 35.6 0 1 .15.79q-.35.6-.92 1.04Z"/><path fill="#2542d6" d="M95.53 53.99c4.85-.72 9.94 1.8 10.84 6.94q1.6 9.12 1.4 14.32c-.23 5.66-4.53 7.28-9.75 6.95q-29.55-1.85-59.08-3.76c-4.59-.3-8.13-3.31-8-8.05.14-5.43 6.61-7.19 11.49-8.01q26.51-4.44 53.1-8.39Z"/><rect fill="#fff" x="-1.19" y="-4.66" transform="rotate(-43.5 189.71 -259.765)" width="2.38" height="9.32" rx=".7"/><path fill="#fff" d="m315.66 73.18 25.39-2.31q.5-.05.22-.44-2.48-3.45-5.66-6.13a.66.58 35 0 1-.19-.77c2.3-4.34 12.8 10.55 14.05 12.32a.67.63 48.5 0 1-.02.8q-.77.91-1.92 1.24a.76.57 61.3 0 1-.72-.33l-2.7-3.73a.99.74-16.5 0 0-.84-.31l-32.3 3.05a.96.85-19.5 0 1-.82-.33q-1.34-1.8.11-2.81c4.65-3.24 9.08-8.93 12.25-13.59q.29-.42-.23-.43l-14.73-.14a.7.63-7.1 0 1-.66-.46q-.28-.93-.17-1.81a.61.56 3.2 0 1 .6-.49h42.89a.7.67-8.5 0 1 .66.47q.27.88.16 1.76a.61.58 3.8 0 1-.6.5l-22.79.01a1.34 1.34-72 0 0-1.08.55q-4.99 6.94-11.11 12.91-.56.54.21.47Z"/><path fill="#cc3a31" d="M98.01 88.48c6.57.97 14.24.03 13.62 9.54-.38 5.82-3.43 7.24-8.99 7.24q-33.66-.02-67.32-.01c-5.35 0-8.76-1.48-8.74-7.26.02-9.93.53-17.21 12.48-16.24q29.57 2.4 58.95 6.73Z"/><path fill="#fdfdfd" fill-opacity=".996" d="M170.26 100.21c3.05-1.61 6.74-4.1 9.12.07 1.64 2.9.87 10.32.86 13.91a.89.69 81.9 0 1-.43.76q-.45.19-.9.04a.78.63-81.9 0 1-.43-.72q.15-8.73-.06-11.2c-.42-5.11-5.7-3.83-8.3-.88a1.35 1.29 66.8 0 0-.33.88l-.05 11.13a.85.67 81.7 0 1-.43.75q-.44.19-.88.01a.88.68-81.3 0 1-.42-.76q-.02-11.3-.01-22.59c0-.78.52-2.2 1.46-1.26a1.44.94-76.1 0 1 .31.89l.03 8.71a.32.3-14.3 0 0 .46.26ZM316.51 113.94q2.11 1.26-.73 1.58-1.78.2-1.78-2.02l.01-22.18a1.47 1.08 72.7 0 1 .31-.91c.95-1.06 1.53.31 1.5 1.13q-.35 10.83.22 21.64a.98.9 15.6 0 0 .47.76ZM471.29 99.79c1.41-.48 2.7-1.57 4.14-1.68 12.29-.9 8.84 23.28-4.21 15.87a.41.37-65.4 0 0-.55.24q-.32.86-1.16.81a.6.52-88.5 0 1-.49-.59V91.07a1.08.83 76.9 0 1 .38-.83c2.11-1.46 1.38 8.31 1.4 9.2a.38.37 80.3 0 0 .49.35Zm-.38 2.89-.19 8.61a1.05.95 22.6 0 0 .38.81c6.53 5.34 10.54-1.49 9.79-7.36-.71-5.52-5.77-6.9-9.61-2.93a1.37 1.24-24.8 0 0-.37.87Z"/><circle fill="#fff" cx="187" cy="93" r="1.49"/><circle fill="#fff" cx="289.75" cy="93.01" r="1.47"/><circle fill="#fdfdfd" fill-opacity=".996" cx="363.5" cy="93" r="1.49"/><circle fill="#fff" cx="461.75" cy="93.01" r="1.47"/><path fill="#fdfdfd" fill-opacity=".996" d="M162.73 111.69q.14.15.2.39a.84.62-32.3 0 1-.27.69q-5.73 5.47-11.97.79c-5.09-3.8-5.02-14.01-1.09-18.56 5.22-6.06 14.54-1.32 12.37.2a.87.72 41.1 0 1-.87-.02c-13.26-7.98-16.65 15.55-6.44 18.3q3.73 1.01 7.27-1.73a.67.46-38.9 0 1 .8-.06ZM236.87 111.32c2.25 2.08 5.56 3.15 8.41 2.09 2.49-.92 3.89-3.59 2.49-5.96-2.57-4.35-13.06-3.87-11.27-11.16 1.35-5.46 8.21-5.43 12.03-2.61.66.49 1.2 1.58 0 1.79a1.22.88 54.1 0 1-.88-.29c-2.6-2.13-7.44-2.69-9.11.81-2.42 5.09 7.74 6.58 10.18 9.47q2.7 3.21.81 6.42c-2.84 4.81-9.25 4.5-13.27 1.28-.62-.5-1.37-1.75-.23-2.1a.98.72 53.6 0 1 .84.26ZM328.86 96.99c.93-6.08 7.94-6.33 12.2-3.22q1.44 1.05-.03 1.61a.93.8 52.7 0 1-.85-.18c-6.03-5.03-14.15 2.21-6.31 6.08 4.05 2 12.01 4.73 7.96 10.93-2.9 4.44-9.06 4.04-12.93 1.08-.64-.49-1.71-2.01-.23-2.22a1.18.88 57.3 0 1 .85.32c2.7 2.5 8.36 3.88 10.64.07 4.57-7.65-12.52-6.56-11.3-14.47ZM447.31 113.45l8.65.06a.83.69-9.4 0 1 .73.43c.8 1.83-10.24 1-11.36.95a.53.52 1.8 0 1-.5-.52l-.02-21.42a.77.73 80.1 0 1 .47-.71q1.32-.48 1.31.75-.07 14.8.2 19.95a.53.52 88.9 0 0 .52.51ZM196.27 100.25q1.24-.54 2.41-1.26c3.95-2.44 7.64-.03 7.8 4.51q.08 2.35.01 10.68a.92.72 81.5 0 1-.44.78q-.54.24-.98-.08a1.18.77-78.1 0 1-.34-.88c.05-3.02.7-10.34-.59-12.86-1.65-3.23-6.1-1.09-7.83 1.25a1.63 1.49 65 0 0-.29.92l-.03 10.87a.88.68 81.4 0 1-.43.77q-.44.19-.88.01a.89.67-81.5 0 1-.42-.77l-.03-14.48a1.41 1.11 71.1 0 1 .31-.88q1.17-1.32 1.26 1.12a.34.34 77.4 0 0 .47.3ZM221.82 104.2c1.14-4.9-4.69-5.7-7.76-3.33a1.76 1.23-56.9 0 1-.89.36q-1.22.05-.79-.73a3.1 3.07-84.6 0 1 1.7-1.42c12.44-4.3 9.66 8.42 9.65 15.16a.62.56 86.9 0 1-.49.61q-.99.13-1.41-.93a.47.41-20.9 0 0-.57-.21l-4.77 1.79q-2.85 1.07-4.44-2.31c-2.86-6.06 4.79-8.21 9.13-8.48a.71.65 4.2 0 0 .64-.51Zm-7.5 9.08q1.95 1.5 4.2.53 5.05-2.16 3.21-7.18a.66.65-12.2 0 0-.67-.43q-2.87.23-5.39 1.5c-2.19 1.09-3.67 3.79-1.35 5.58Z"/><path fill="#fdfdfd" fill-opacity=".996" d="M260.709 115.5a8.74 7.54 90.4 0 1-7.479-8.793 8.74 7.54 90.4 0 1 7.601-8.687 8.74 7.54 90.4 0 1 7.479 8.793 8.74 7.54 90.4 0 1-7.601 8.687Zm.176-1.5a7.23 5.64 89.8 0 0 5.615-7.25 7.23 5.64 89.8 0 0-5.665-7.21 7.23 5.64 89.8 0 0-5.615 7.25 7.23 5.64 89.8 0 0 5.665 7.21Z"/><path fill="#fdfdfd" fill-opacity=".996" d="M283.4 114.31c-14.96 7.73-15.33-21.96-.43-15.38.75.33 1.67 1.19.73 1.88a.81.65 41.5 0 1-.84-.04c-11.35-7.47-12.66 19.11.26 12.02a1.38.87-42.7 0 1 .93-.17c1.2.34-.14 1.43-.65 1.69ZM306.43 114.37q.02-1.38-1.12-.61c-9.79 6.55-15.2-7.91.09-9.07a.69.66 3.2 0 0 .62-.53c1.12-5.02-4.67-5.53-7.71-3.3a1.87 1.1-52.3 0 1-.9.36q-1.18.04-.68-.91a3.05 3.02 6.4 0 1 1.9-1.5c12.33-3.22 9.37 8.62 9.35 15.39a.83.71 79.8 0 1-.43.73q-1.14.52-1.12-.56Zm-.66-7.99c-2.93-.3-10.67 2.05-7.89 6.27 1.88 2.85 6.06 1.18 7.91-.74a1.37 1.24-24.8 0 0 .37-.87l.12-4.11a.56.53 3.9 0 0-.51-.55ZM345.96 108.52c-1.14-6.88 4.92-13.32 11.58-9.28q1.36.82.17 1.58a.84.72 44.1 0 1-.85-.05c-11.14-7.35-13.14 19.19.65 11.79q.97-.52 1 .41a1.14.93-23.8 0 1-.42.82c-4.99 4.02-11.14.69-12.13-5.27ZM371.19 101.19c4.26-6.49 12.74-2.5 11.96 5.2a.58.58 2.2 0 1-.57.52l-10.33.07a1.01.99-7 0 0-.98 1.23q2.05 8.34 10.05 5a1.07.72-33.2 0 1 .9.01c.64.45.03 1.02-.45 1.23-9.33 4.22-15.58-5.65-10.58-13.26Zm.76 1.69q-1.99 2.87 1.41 2.85l7.76-.03a.69.68 85 0 0 .67-.81c-1.04-6.17-6.07-7.41-9.84-2.01ZM389.95 100.36c2.54-2.12 6.14-3.5 8.55-.94 2.34 2.48 1.58 11.43 1.46 14.77a.93.72 82 0 1-.44.77q-.52.24-.96-.09a1.16.77-77.6 0 1-.33-.86q.17-9.12-.06-10.94c-.66-5.35-6.12-3.82-8.36-.68a1.74 1.55 65.7 0 0-.29.92l-.03 10.87a.89.67 81.5 0 1-.42.77q-.45.19-.87.01a.88.68-81.4 0 1-.43-.77l.03-14.92a.65.57 86.4 0 1 .49-.63q1.21-.15 1.28 1.54.02.48.38.18ZM416.58 114.27c-16.12 7.62-14.71-22.63-.38-15.19.71.38 1.43 1.43.34 1.79a1.15.81 47.7 0 1-.9-.2c-8.14-5.58-12.69 10.05-4.85 12.98q2.69 1.01 5.38-1.01a.96.73-47.2 0 1 .87-.15c1.12.5.24 1.45-.46 1.78Z"/><path fill="#fdfdfd" fill-opacity=".996" d="M426.51 115.45c-9.98-1.21-8.68-17.44.1-17.4 4.7.02 7.08 3.94 6.55 8.35a.59.57-86 0 1-.57.51l-10.23.06a1.12 1.1-8.2 0 0-1.08 1.41q2.38 8.14 10.05 4.83a1.04.78-35.2 0 1 .89.03c2.12 1.42-4.92 2.3-5.71 2.21Zm-4.56-12.57q-1.99 2.87 1.41 2.85l7.76-.03a.69.68 85 0 0 .67-.81c-1.04-6.17-6.07-7.41-9.84-2.01ZM489.68 100.59c1.49-1.39 5.46-4.52 6-1.42a.46.41-5.4 0 1-.45.49c-7.73.06-5.71 9.69-5.75 14.53a.88.68 81.4 0 1-.43.77q-.42.18-.85.04a.82.65-82.8 0 1-.45-.74l.04-14.99a.63.58 86.4 0 1 .5-.62q1.4-.21 1.11 1.8-.07.47.28.14ZM506.82 113.78c-4.34 2.77-10.98 2.31-9.6-4.55.62-3.06 6.84-4.3 9.66-4.58a.58.57-2.3 0 0 .52-.56c.11-5.16-4.48-5.57-8.08-3.17a1.17.84-46.9 0 1-.9.18c-1.18-.37 0-1.48.6-1.78 12.16-5.89 10.33 7.66 10.19 14.92a.69.6 86 0 1-.49.65q-.9.16-1.32-.92a.4.4 62.9 0 0-.58-.19Zm.23-7.41c-12.49-1.21-8.86 13.69.1 5.47a1.21 1.04 71.7 0 0 .35-.85l.03-4.07a.55.54-87.1 0 0-.48-.55ZM517.18 100.6c1.48-1.32 5.32-4.5 5.91-1.52a.47.43-6.6 0 1-.44.51c-7.68.37-5.63 9.86-5.68 14.84a.7.59 85 0 1-.47.67q-.44.09-.82-.1a.98.71-80.3 0 1-.4-.81l.01-14.95a.69.62 84.3 0 1 .48-.66q1.38-.34 1.12 1.87-.06.47.29.15Z"/><rect fill="#fdfdfd" fill-opacity=".996" x="-.87" y="-8.35" transform="rotate(-.1 61216.682 -107158.495)" width="1.74" height="16.7" rx=".75"/><path fill="#fdfdfd" fill-opacity=".996" d="M532.26 112.54q.39 1.09.75-.02l4.37-13.25a1.09.98-88.4 0 1 .63-.66c2.22-.79.85 1.56.6 2.29-2.94 8.92-5.73 22.33-12.35 21.39a.69.62 2.6 0 1-.58-.57q-.13-1.35 1.61-.81a1.23 1 34.2 0 0 .92-.08c2.99-1.85 4.03-4.38 2.63-7.84q-2.69-6.66-5.39-13.31a1.07.83 54.7 0 1 .04-.9c1.62-2.53 6.39 12.7 6.77 13.76Z"/><rect fill="#fdfdfd" fill-opacity=".996" x="-.88" y="-8.25" transform="rotate(.1 -61018.29 166142.338)" width="1.76" height="16.5" rx=".6"/><rect fill="#fdfdfd" fill-opacity=".996" x="-.88" y="-8.25" transform="rotate(.1 -60981.414 208397.965)" width="1.76" height="16.5" rx=".6"/><rect fill="#fdfdfd" fill-opacity=".996" x="461" y="98.5" width="1.76" height="16.52" rx=".66"/></svg>