<svg xmlns="http://www.w3.org/2000/svg" viewBox="0 0 186 156"><path fill="#c2c2c2" d="M57.84 14.73a.42.42 26.9 0 1-.17-.57l5.68-10.12a1.24 1.18 5.6 0 1 .73-.57C68.17 2.23 72.17.58 76.4 1.36q9.44 1.74 15.64 8.92c2.68 3.08 3.37 7.31 4.45 11.25a1.23 1.18 52.6 0 1-.1.92l-5.42 9.9a.63.63 28.6 0 1-.86.25L57.84 14.73ZM52.17 25.15c10.84 5.68 22 11.4 32.41 17.7a.53.52 29.6 0 1 .2.7q-23.48 42.63-47 85.3-1.13 2.04-3.02 3.39-16.2 11.55-32.73 22.5-.41.28-.39-.22.66-19.79 1.54-39.4.1-2.31 1.22-4.34l47.09-85.42a.51.51-61.9 0 1 .68-.21ZM186 126.06V156H60.19l-.13-29.56a.42.42 89.2 0 1 .42-.42l125.52.04Z"/></svg>