<svg class="icon" viewBox="0 0 1024 1024" xmlns="http://www.w3.org/2000/svg" width="48" height="48"><path d="M614.401 672.166c-3.023-32.95-1.868-55.957-1.868-86.067 15.167-7.856 42.312-57.784 46.897-99.964 11.92-.955 30.692-12.41 36.205-57.626 2.96-24.276-8.818-37.937-15.993-42.238 19.382-57.439 59.665-235.137-74.487-253.513-13.806-23.874-49.164-35.961-95.102-35.961-183.801 3.325-205.978 136.721-165.695 289.474-7.158 4.302-18.958 17.963-15.997 42.238 5.513 45.216 24.289 56.671 36.205 57.626 4.567 42.18 32.805 92.109 47.99 99.964 0 30.11 1.137 53.116-1.886 86.067-36.367 96.335-281.78 69.273-293.112 255.037h788.884c-11.315-185.764-255.673-158.702-292.04-255.037z" fill="#fef5ff"/></svg>